<svg width="25" height="18" viewBox="0 0 25 18" fill="none" xmlns="http://www.w3.org/2000/svg">
<path d="M24.0925 3.97453C24.0925 1.86516 22.5409 0.168281 20.6237 0.168281C18.0269 0.0468748 15.3784 0 12.6719 0H11.8281C9.12811 0 6.47498 0.0468749 3.8781 0.16875C1.96561 0.16875 0.414042 1.875 0.414042 3.98437C0.296855 5.65266 0.247167 7.32141 0.24998 8.99016C0.245292 10.6589 0.298417 12.3292 0.409355 14.0011C0.409355 16.1105 1.96092 17.8214 3.87342 17.8214C6.60154 17.948 9.39998 18.0042 12.2453 17.9995C15.0953 18.0089 17.8859 17.9495 20.6172 17.8214C22.5344 17.8214 24.0859 16.1105 24.0859 14.0011C24.1984 12.3277 24.25 10.6589 24.2453 8.98547C24.2559 7.31672 24.205 5.64641 24.0925 3.97453ZM9.9531 13.5886V4.37766L16.75 8.98078L9.9531 13.5886Z" fill="white"/>
</svg>
